<svg width="30" height="30" viewBox="0 0 30 30" fill="none" xmlns="http://www.w3.org/2000/svg">
<path d="M5.40002 2.3999C3.75031 2.3999 2.40002 3.75019 2.40002 5.3999V24.5999C2.40002 26.2496 3.75031 27.5999 5.40002 27.5999H15.4992C15.564 27.6106 15.6302 27.6106 15.6949 27.5999H19.0992C19.164 27.6106 19.2302 27.6106 19.2949 27.5999H24.6C26.2497 27.5999 27.6 26.2496 27.6 24.5999V5.3999C27.6 3.75019 26.2497 2.3999 24.6 2.3999H5.40002ZM5.40002 3.5999H24.6C25.6011 3.5999 26.4 4.39881 26.4 5.3999V24.5999C26.4 25.601 25.6011 26.3999 24.6 26.3999H19.8V17.9999H22.0922L22.9324 13.7999H19.8V12.5999C19.8 12.2654 19.8319 12.2393 19.9442 12.1663C20.0565 12.0934 20.4035 11.9999 21 11.9999H22.8V8.62139L22.4578 8.4585C22.4578 8.4585 21.0796 7.7999 19.2 7.7999C17.85 7.7999 16.741 8.33777 16.0313 9.2249C15.3216 10.112 15 11.2999 15 12.5999V13.7999H13.2V17.9999H15V26.3999H5.40002C4.39893 26.3999 3.60002 25.601 3.60002 24.5999V5.3999C3.60002 4.39881 4.39893 3.5999 5.40002 3.5999ZM19.2 8.9999C20.4475 8.9999 21.2324 9.27497 21.6 9.42061V10.7999H21C20.3095 10.7999 19.7562 10.857 19.2903 11.1597C18.8243 11.4623 18.6 12.0368 18.6 12.5999V14.9999H21.4676L21.1078 16.7999H18.6V26.3999H16.2V16.7999H14.4V14.9999H16.2V12.5999C16.2 11.4999 16.4785 10.5878 16.9688 9.9749C17.4591 9.36203 18.15 8.9999 19.2 8.9999Z" fill="white"/>
</svg>
