<svg width="30" height="30" viewBox="0 0 30 30" fill="none" xmlns="http://www.w3.org/2000/svg">
<path d="M15.0002 1.20001C7.38577 1.20001 1.2002 7.38559 1.2002 15C1.2002 22.6144 7.38577 28.8 15.0002 28.8C22.6146 28.8 28.8002 22.6144 28.8002 15C28.8002 7.38559 22.6146 1.20001 15.0002 1.20001ZM15.0002 2.40001C21.9661 2.40001 27.6002 8.03412 27.6002 15C27.6002 21.9659 21.9661 27.6 15.0002 27.6C8.0343 27.6 2.4002 21.9659 2.4002 15C2.4002 8.03412 8.0343 2.40001 15.0002 2.40001ZM6.95996 7.80001C6.42956 7.80001 6.0002 8.22938 6.0002 8.75978V12.2402C6.0002 12.7706 6.43016 13.2 6.95996 13.2H9.3002V12H7.55996C7.36136 12 7.2002 11.8388 7.2002 11.6402V9.35978C7.2002 9.16118 7.36136 9.00001 7.55996 9.00001H9.84043C10.039 9.00001 10.2002 9.16118 10.2002 9.35978V14.0402C10.2002 14.2388 10.039 14.4 9.84043 14.4H6.0002V15.6H10.4404C10.9708 15.6 11.4002 15.1706 11.4002 14.6402V8.75978C11.4002 8.22938 10.9702 7.80001 10.4404 7.80001H6.95996ZM13.26 7.80001C12.7308 7.80001 12.3002 8.23058 12.3002 8.75978V12.2402C12.3002 12.7694 12.7308 13.2 13.26 13.2H16.7404C17.2696 13.2 17.7002 12.7694 17.7002 12.2402V8.75978C17.7002 8.23058 17.2696 7.80001 16.7404 7.80001H13.26ZM19.56 7.80001C19.0296 7.80001 18.6002 8.22938 18.6002 8.75978V12.2402C18.6002 12.7706 19.0302 13.2 19.56 13.2H21.9002V12H20.16C19.9614 12 19.8002 11.8388 19.8002 11.6402V9.35978C19.8002 9.16118 19.9614 9.00001 20.16 9.00001H22.4404C22.639 9.00001 22.8002 9.16118 22.8002 9.35978V14.0402C22.8002 14.2388 22.639 14.4 22.4404 14.4H18.6002V15.6H23.0404C23.5708 15.6 24.0002 15.1706 24.0002 14.6402V8.75978C24.0002 8.22938 23.5702 7.80001 23.0404 7.80001H19.56ZM13.86 9.00001H16.1404C16.339 9.00001 16.5002 9.16118 16.5002 9.35978V11.6402C16.5002 11.8388 16.339 12 16.1404 12H13.86C13.6614 12 13.5002 11.8388 13.5002 11.6402V9.35978C13.5002 9.16118 13.6614 9.00001 13.86 9.00001ZM6.95996 16.8C6.42956 16.8 6.0002 17.23 6.0002 17.7598V21.2402C6.0002 21.7706 6.43016 22.2 6.95996 22.2H10.5002V21H7.55996C7.36136 21 7.2002 20.8389 7.2002 20.6402V18.3598C7.2002 18.1612 7.36136 18 7.55996 18H10.5002V16.8H6.95996ZM12.36 16.8C11.8308 16.8 11.4002 17.2306 11.4002 17.7598V21.2402C11.4002 21.7694 11.8308 22.2 12.36 22.2H15.8404C16.3696 22.2 16.8002 21.7694 16.8002 21.2402V17.7598C16.8002 17.2306 16.3696 16.8 15.8404 16.8H12.36ZM18.66 16.8C18.1302 16.8 17.7002 17.2294 17.7002 17.7598V22.2H18.9002V18.3598C18.9002 18.1612 19.0614 18 19.26 18H20.2502V22.2H21.4502V18.3598C21.4502 18.1612 21.6114 18 21.81 18H22.8002V22.2H24.0002V16.8H18.66ZM12.96 18H15.2404C15.439 18 15.6002 18.1612 15.6002 18.3598V20.6402C15.6002 20.8389 15.439 21 15.2404 21H12.96C12.7614 21 12.6002 20.8389 12.6002 20.6402V18.3598C12.6002 18.1612 12.7614 18 12.96 18Z" fill="white"/>
</svg>
