<svg width="50" height="51" viewBox="0 0 50 51" fill="none" xmlns="http://www.w3.org/2000/svg">
<path d="M11.9792 6.75C8.83357 6.75 6.25 9.33357 6.25 12.4792V38.5208C6.25 41.6664 8.83357 44.25 11.9792 44.25H38.0208C41.1664 44.25 43.75 41.6664 43.75 38.5208V12.4792C43.75 9.33357 41.1664 6.75 38.0208 6.75H11.9792ZM11.9792 9.875H38.0208C39.4773 9.875 40.625 11.0227 40.625 12.4792V38.5208C40.625 39.9773 39.4773 41.125 38.0208 41.125H11.9792C10.5227 41.125 9.375 39.9773 9.375 38.5208V29.7277L13.6027 31.5404C13.5745 31.7836 13.5417 32.0267 13.5417 32.2708C13.5417 33.6742 14.0038 35.0915 14.976 36.1852C15.9482 37.2789 17.4479 38 19.2708 38C21.0937 38 22.5935 37.2789 23.5657 36.1852C24.5378 35.0915 25 33.6742 25 32.2708C25 31.9996 24.9677 31.7289 24.9329 31.4591L29.9296 27.5691C30.0228 27.5726 30.1143 27.5833 30.2083 27.5833C34.2281 27.5833 37.5 24.3115 37.5 20.2917C37.5 16.2719 34.2281 13 30.2083 13C26.1885 13 22.9167 16.2719 22.9167 20.2917C22.9167 20.5065 22.9309 20.7183 22.9492 20.9285L19.5699 26.5559C19.4699 26.5514 19.3729 26.5417 19.2708 26.5417C17.4479 26.5417 15.9482 27.2628 14.976 28.3564C14.8965 28.4459 14.827 28.5416 14.7542 28.6352L9.375 26.3301V12.4792C9.375 11.0227 10.5227 9.875 11.9792 9.875ZM30.2083 16.125C32.5062 16.125 34.375 17.9937 34.375 20.2917C34.375 22.5896 32.5062 24.4583 30.2083 24.4583C27.9104 24.4583 26.0417 22.5896 26.0417 20.2917C26.0417 17.9937 27.9104 16.125 30.2083 16.125ZM30.2083 18.2083C29.6558 18.2083 29.1259 18.4278 28.7352 18.8185C28.3445 19.2092 28.125 19.7391 28.125 20.2917C28.125 20.8442 28.3445 21.3741 28.7352 21.7648C29.1259 22.1555 29.6558 22.375 30.2083 22.375C30.7609 22.375 31.2908 22.1555 31.6815 21.7648C32.0722 21.3741 32.2917 20.8442 32.2917 20.2917C32.2917 19.7391 32.0722 19.2092 31.6815 18.8185C31.2908 18.4278 30.7609 18.2083 30.2083 18.2083ZM19.2708 28.625C20.5729 28.625 21.4169 29.0758 22.0072 29.7399C22.5976 30.404 22.9167 31.3304 22.9167 32.2708C22.9167 33.2112 22.5976 34.1376 22.0072 34.8018C21.4169 35.4659 20.5729 35.9167 19.2708 35.9167C17.9688 35.9167 17.1248 35.4659 16.5344 34.8018C15.9742 34.1715 15.668 33.3037 15.6372 32.4132L18.6544 33.7072C18.843 33.7882 19.0458 33.8313 19.251 33.8339C19.4563 33.8366 19.6601 33.7987 19.8508 33.7226C20.0414 33.6465 20.2152 33.5336 20.3622 33.3903C20.5092 33.247 20.6266 33.0761 20.7076 32.8874C20.7885 32.6988 20.8315 32.496 20.8341 32.2907C20.8367 32.0855 20.7989 31.8817 20.7227 31.691C20.6465 31.5004 20.5335 31.3266 20.3902 31.1797C20.2469 31.0327 20.076 30.9154 19.8873 30.8345L16.7887 29.5059C17.3629 28.9786 18.1364 28.625 19.2708 28.625Z" fill="white"/>
</svg>
