<svg width="30" height="30" viewBox="0 0 30 30" fill="none" xmlns="http://www.w3.org/2000/svg">
<path d="M6.00039 1.79999C4.01942 1.79999 2.40039 3.41901 2.40039 5.39999V24.7465L15.0004 28.5269L27.6004 24.7465V24.3V5.39999C27.6004 3.41901 25.9814 1.79999 24.0004 1.79999H6.00039ZM6.00039 2.99999H24.0004C25.3326 2.99999 26.4004 4.06776 26.4004 5.39999V23.8535L15.0004 27.273L3.60039 23.8535V5.39999C3.60039 4.06776 4.66817 2.99999 6.00039 2.99999ZM6.60039 4.79999C5.60619 4.79999 4.80039 5.60579 4.80039 6.59999V16.8C4.80039 17.7942 5.60619 18.6 6.60039 18.6H9.00039V16.8H6.60039V12.6H8.40039V10.8H6.60039V6.59999H9.00039V4.79999H6.60039ZM10.2004 4.79999V18.6H12.0004V12.6H13.8004C14.7946 12.6 15.6004 11.7942 15.6004 10.8V6.59999C15.6004 5.60579 14.7946 4.79999 13.8004 4.79999H10.2004ZM16.8004 4.79999V18.6H18.6004V4.79999H16.8004ZM21.6004 4.79999C20.6062 4.79999 19.8004 5.60579 19.8004 6.59999V16.8C19.8004 17.7942 20.6062 18.6 21.6004 18.6H23.4004C24.3946 18.6 25.2004 17.7942 25.2004 16.8V14.4H23.4004V16.8H21.6004V6.59999H23.4004V8.99999H25.2004V6.59999C25.2004 5.60579 24.3946 4.79999 23.4004 4.79999H21.6004ZM12.0004 6.59999H13.8004V10.8H12.0004V6.59999ZM5.40039 19.8C5.06919 19.8 4.80039 20.0688 4.80039 20.4V22.8C4.80039 23.1312 5.06919 23.4 5.40039 23.4H7.80039C8.13159 23.4 8.40039 23.1312 8.40039 22.8V21.6H7.20039V22.2H7.80039V22.65C7.80039 22.7328 7.73319 22.8 7.65039 22.8H5.55039C5.46759 22.8 5.40039 22.7328 5.40039 22.65V20.55C5.40039 20.4672 5.46759 20.4 5.55039 20.4H7.65039C7.73319 20.4 7.80039 20.4672 7.80039 20.55V21H8.40039V20.4C8.40039 20.0688 8.13159 19.8 7.80039 19.8H5.40039ZM10.8004 19.8L9.00039 23.4H9.60039L9.90039 22.8H12.3004L12.6004 23.4H13.2004L11.4004 19.8H10.8004ZM13.8004 19.8V23.4H14.4004V21L15.3004 22.8H15.9004L16.8004 21V23.4H17.4004V19.8H16.8004L15.6004 22.2L14.4004 19.8H13.8004ZM18.0004 19.8V20.4V22.8V23.4H18.6004H21.0004V22.8H18.6004V21.9H19.8004V21.3H18.6004V20.4H21.0004V19.8H18.6004H18.0004ZM22.2004 19.8C21.8692 19.8 21.6004 20.0688 21.6004 20.4V21.3C21.6004 21.6312 21.8692 21.9 22.2004 21.9H24.4504C24.5332 21.9 24.6004 21.9672 24.6004 22.05V22.65C24.6004 22.7328 24.5332 22.8 24.4504 22.8H22.3504C22.2676 22.8 22.2004 22.7328 22.2004 22.65V22.5H21.6004V22.8C21.6004 23.1312 21.8692 23.4 22.2004 23.4H24.6004C24.9316 23.4 25.2004 23.1312 25.2004 22.8V21.9C25.2004 21.5688 24.9316 21.3 24.6004 21.3H22.3504C22.2676 21.3 22.2004 21.2328 22.2004 21.15V20.55C22.2004 20.4672 22.2676 20.4 22.3504 20.4H24.4504C24.5332 20.4 24.6004 20.4672 24.6004 20.55V20.7H25.2004V20.4C25.2004 20.0688 24.9316 19.8 24.6004 19.8H22.2004ZM11.1004 20.4L12.0004 22.2H10.2004L11.1004 20.4Z" fill="white"/>
</svg>
