<svg width="30" height="30" viewBox="0 0 30 30" fill="none" xmlns="http://www.w3.org/2000/svg">
<path d="M26.6262 3.59161C26.334 3.60443 26.0495 3.68576 25.793 3.78848C25.5391 3.89052 24.0774 4.51442 21.9188 5.43731C19.7602 6.36021 16.9542 7.56201 14.1727 8.75372C8.60965 11.1371 3.14301 13.4822 3.14301 13.4822L3.18285 13.467C3.18285 13.467 2.85291 13.5773 2.5184 13.8104C2.35114 13.9269 2.1712 14.0773 2.02387 14.2967C1.87654 14.516 1.76882 14.8269 1.80942 15.1557C1.95199 16.3105 3.14887 16.6381 3.14887 16.6381L3.15356 16.6404L8.49496 18.4686C8.63115 18.9229 10.115 23.8756 10.4414 24.9244C10.6217 25.5043 10.7904 25.8388 10.9664 26.067C11.0545 26.1812 11.1468 26.2696 11.2489 26.3342C11.2894 26.3599 11.3321 26.3791 11.3743 26.3963C11.3752 26.3967 11.3757 26.3959 11.3766 26.3963C11.3818 26.3986 11.3867 26.3988 11.3918 26.401L11.3778 26.3975C11.3876 26.4014 11.3973 26.4081 11.4071 26.4115C11.4261 26.4182 11.4378 26.418 11.4621 26.4233C12.0739 26.6368 12.5801 26.2404 12.5801 26.2404L12.6012 26.224L15.8825 23.1807L21.2075 27.3326L21.2743 27.3631C22.2063 27.7769 23.0492 27.5461 23.5161 27.1662C23.9829 26.7864 24.1664 26.2967 24.1664 26.2967L24.1864 26.2451L28.0993 5.85098C28.1994 5.39472 28.2136 5.00033 28.1192 4.64395C28.0248 4.28757 27.7953 3.97777 27.5075 3.80606C27.2196 3.63435 26.9184 3.57879 26.6262 3.59161ZM26.6579 4.81153C26.7765 4.80603 26.8645 4.8196 26.8922 4.83614C26.92 4.85268 26.9324 4.8505 26.959 4.95098C26.9856 5.05147 27.0001 5.26311 26.9274 5.59434L26.925 5.60137L23.0344 25.8772C23.0252 25.8976 22.9441 26.0851 22.759 26.2358C22.5702 26.3894 22.3602 26.5093 21.8028 26.2756L15.9797 21.7346L15.8157 21.6057L15.8121 21.6092L14.0707 20.3025L23.8571 8.78888C23.9323 8.70063 23.9803 8.5925 23.9953 8.47754C24.0104 8.36259 23.9918 8.24573 23.9418 8.14111C23.8919 8.03649 23.8127 7.94858 23.7138 7.88801C23.615 7.82744 23.5007 7.79681 23.3848 7.79981C23.2716 7.80275 23.1614 7.83769 23.0672 7.90059L8.90629 17.3412L3.55668 15.5096C3.55668 15.5096 3.02547 15.214 3.00004 15.008C2.99863 14.9966 2.99236 15.0069 3.01996 14.9658C3.04757 14.9247 3.11695 14.8553 3.20395 14.7947C3.37793 14.6735 3.5766 14.6002 3.5766 14.6002L3.59652 14.5932L3.61645 14.585C3.61645 14.585 9.08338 12.2397 14.6461 9.85645C17.4275 8.66481 20.233 7.46389 22.3911 6.54122C24.5485 5.61879 26.1075 4.95483 26.2395 4.90177C26.3898 4.84159 26.5392 4.81703 26.6579 4.81153ZM20.168 11.2756L12.7465 20.0072L12.743 20.0107C12.7314 20.0247 12.7205 20.0392 12.7102 20.0541C12.6984 20.0703 12.6875 20.0872 12.6774 20.1045C12.6357 20.1753 12.609 20.2538 12.5989 20.3354C12.5989 20.3369 12.5989 20.3385 12.5989 20.34L11.6321 24.6877C11.616 24.6407 11.6047 24.6235 11.5875 24.5682V24.567C11.2805 23.5803 9.88046 18.9095 9.68676 18.2635L20.168 11.2756ZM13.5844 21.4381L14.918 22.4389L12.9586 24.2553L13.5844 21.4381Z" fill="white"/>
</svg>
